<svg fill="none" xmlns="http://www.w3.org/2000/svg" viewBox="0 0 506 169"><path fill-rule="evenodd" clip-rule="evenodd" d="M118.342 84.724c0 9.314-3.774 17.746-9.877 23.848-6.103 6.103-14.535 9.878-23.849 9.878-9.313 0-17.745-3.775-23.848-9.878-6.103-6.102-9.878-14.534-9.878-23.848 0-9.313 3.775-17.745 9.878-23.848 6.103-6.103 14.535-9.878 23.849-9.878 9.313 0 17.745 3.775 23.848 9.878 6.103 6.103 9.877 14.535 9.877 23.848Zm-60.198 75.672c2.498-10.026 10.662-34.968 26.473-34.968 15.81 0 23.974 24.942 26.472 34.968 3.102 12.449 18.516 11.042 16.347-3.642-1.741-11.795-10.045-29.145-20.398-40.631a38.782 38.782 0 0 0 8.977-8.977c11.486 10.353 28.836 18.656 40.631 20.398 14.683 2.168 16.091-13.246 3.642-16.347-10.026-2.498-34.968-10.662-34.968-26.473 0-15.81 24.942-23.975 34.968-26.473 12.449-3.101 11.041-18.515-3.642-16.347-11.795 1.742-29.145 10.046-40.631 20.398a38.822 38.822 0 0 0-8.977-8.977c10.353-11.486 18.657-28.836 20.398-40.63 2.169-14.684-13.245-16.092-16.347-3.643-2.498 10.026-10.662 34.969-26.472 34.969S60.642 19.078 58.144 9.05C55.042-3.398 39.628-1.99 41.796 12.694c1.742 11.794 10.046 29.144 20.398 40.63a38.766 38.766 0 0 0-8.976 8.977C41.73 51.95 24.38 43.646 12.587 41.904-2.097 39.736-3.504 55.15 8.944 58.251c10.027 2.498 34.969 10.663 34.969 26.473 0 15.811-24.942 23.975-34.969 26.473-12.448 3.101-11.04 18.515 3.643 16.347 11.794-1.742 29.144-10.045 40.63-20.398a38.761 38.761 0 0 0 8.977 8.977c-10.352 11.486-18.656 28.836-20.398 40.631-2.168 14.684 13.246 16.091 16.348 3.642Z" fill="#0C8D3B"/><path fill-rule="evenodd" clip-rule="evenodd" d="M15.212 84.724c0-5.4 4.378-9.777 9.777-9.777 5.4 0 9.778 4.377 9.778 9.777 0 5.4-4.378 9.777-9.778 9.777s-9.777-4.377-9.777-9.777Zm69.404 24.396c13.474 0 24.396-10.922 24.396-24.396S98.09 60.328 84.616 60.328c-13.473 0-24.396 10.922-24.396 24.396s10.923 24.396 24.396 24.396Zm0-93.8a9.777 9.777 0 0 0-9.777 9.777c0 5.4 4.377 9.778 9.777 9.778 5.4 0 9.778-4.378 9.778-9.778s-4.378-9.777-9.778-9.777Zm69.404 69.404c0-5.4-4.377-9.777-9.777-9.777a9.777 9.777 0 0 0-9.777 9.777c0 5.4 4.377 9.777 9.777 9.777 5.4 0 9.777-4.377 9.777-9.777Zm-69.404 69.404a9.777 9.777 0 0 1-9.777-9.777c0-5.4 4.377-9.777 9.777-9.777 5.4 0 9.778 4.377 9.778 9.777 0 5.4-4.378 9.777-9.778 9.777Z" fill="#008CCF"/><path fill-rule="evenodd" clip-rule="evenodd" d="M84.617 99.525c8.174 0 14.8-6.627 14.8-14.8 0-8.175-6.626-14.801-14.8-14.801s-14.8 6.626-14.8 14.8 6.626 14.8 14.8 14.8Zm140.214-54.214c0 .606-.146 1.26-.447 1.964-.296.704-.765 1.394-1.406 2.07-.637.682-1.455 1.23-2.446 1.655-.996.42-2.155.633-3.477.633-1 0-1.911-.094-2.734-.284a7.668 7.668 0 0 1-2.234-.889 7.53 7.53 0 0 1-1.849-1.583 9.476 9.476 0 0 1-1.283-2 10.492 10.492 0 0 1-.796-2.366c-.177-.84-.265-1.73-.265-2.672 0-1.526.221-2.898.668-4.105.442-1.212 1.083-2.247 1.911-3.105a8.396 8.396 0 0 1 2.915-1.965 9.496 9.496 0 0 1 3.565-.672c1.539 0 2.906.305 4.109.92 1.199.61 2.119 1.372 2.761 2.274.636.902.959 1.752.959 2.557 0 .442-.159.827-.468 1.168-.31.336-.686.504-1.128.504-.491 0-.863-.12-1.106-.35-.248-.234-.522-.637-.823-1.207-.504-.942-1.093-1.646-1.769-2.115-.682-.464-1.513-.699-2.509-.699-1.583 0-2.839.602-3.777 1.8-.938 1.204-1.407 2.911-1.407 5.123 0 1.478.208 2.707.624 3.69.411.981 1 1.711 1.76 2.198.761.482 1.65.725 2.672.725 1.106 0 2.04-.274 2.805-.822.765-.549 1.34-1.354 1.729-2.42.164-.5.367-.907.611-1.226.239-.314.628-.473 1.163-.473.46 0 .854.16 1.181.482.328.319.491.717.491 1.19Zm16.456-.867c0 1.057-.164 2.026-.491 2.915a6.45 6.45 0 0 1-1.429 2.292 6.238 6.238 0 0 1-2.23 1.468c-.862.34-1.836.514-2.915.514-1.075 0-2.039-.173-2.893-.518a6.429 6.429 0 0 1-2.225-1.487 6.407 6.407 0 0 1-1.424-2.278c-.323-.88-.487-1.849-.487-2.91 0-1.07.164-2.053.491-2.942.332-.889.801-1.65 1.416-2.282a6.275 6.275 0 0 1 2.229-1.456c.872-.34 1.836-.513 2.893-.513 1.071 0 2.044.173 2.915.518.872.345 1.619.84 2.243 1.482a6.303 6.303 0 0 1 1.42 2.282c.323.88.487 1.853.487 2.915Zm-3.557 0c0-1.442-.318-2.561-.951-3.366-.637-.8-1.486-1.203-2.557-1.203-.694 0-1.3.177-1.827.535-.526.358-.933.889-1.216 1.588-.288.699-.429 1.517-.429 2.446 0 .925.141 1.734.42 2.424.283.69.681 1.221 1.203 1.588s1.141.549 1.849.549c1.071 0 1.92-.403 2.557-1.212.633-.805.951-1.925.951-3.349Zm18.101.257v4.702c0 .743-.168 1.3-.504 1.672-.336.371-.783.557-1.332.557-.535 0-.969-.185-1.3-.557-.332-.372-.5-.929-.5-1.672v-5.636c0-.893-.031-1.583-.093-2.074-.057-.491-.221-.898-.491-1.212-.27-.314-.69-.473-1.274-.473-1.159 0-1.92.398-2.287 1.194-.367.791-.553 1.933-.553 3.42v4.781c0 .734-.168 1.291-.5 1.668-.331.376-.769.562-1.309.562-.535 0-.973-.187-1.314-.562-.34-.377-.513-.934-.513-1.668V39.282c0-.663.155-1.172.46-1.517.305-.345.708-.518 1.208-.518.486 0 .889.164 1.212.487.323.323.486.77.486 1.34v.336c.611-.734 1.27-1.274 1.969-1.619.699-.345 1.477-.517 2.331-.517.893 0 1.654.177 2.296.53.641.354 1.168.89 1.579 1.606.597-.725 1.238-1.26 1.92-1.61a4.896 4.896 0 0 1 2.269-.526c.969 0 1.8.19 2.499.57.699.38 1.225.925 1.57 1.633.301.637.452 1.645.452 3.017v6.909c0 .743-.168 1.3-.505 1.672-.336.371-.783.557-1.331.557-.535 0-.973-.185-1.314-.561-.34-.377-.513-.934-.513-1.668v-5.95c0-.76-.031-1.367-.097-1.827a2.115 2.115 0 0 0-.527-1.154c-.283-.31-.716-.464-1.296-.464-.469 0-.911.136-1.331.415a2.823 2.823 0 0 0-.978 1.115c-.261.593-.389 1.65-.389 3.163Zm20.556 4.936v-.455a7.885 7.885 0 0 1-1.336 1.349 4.875 4.875 0 0 1-1.526.81c-.553.176-1.181.265-1.889.265-.858 0-1.623-.177-2.3-.531a3.879 3.879 0 0 1-1.575-1.464c-.438-.752-.659-1.831-.659-3.242v-7.007c0-.712.159-1.239.478-1.588.318-.35.743-.527 1.269-.527.531 0 .965.177 1.292.531.327.354.491.88.491 1.584v5.662c0 .818.07 1.508.208 2.065.137.558.385.996.743 1.31.358.314.845.473 1.459.473.598 0 1.16-.177 1.686-.53a3.124 3.124 0 0 0 1.155-1.39c.199-.5.296-1.597.296-3.29v-4.3c0-.704.164-1.23.491-1.584.332-.354.761-.53 1.287-.53.527 0 .951.176 1.27.526.322.35.482.876.482 1.588V49.61c0 .672-.155 1.176-.46 1.517-.31.336-.704.505-1.19.505a1.55 1.55 0 0 1-1.199-.527c-.314-.35-.473-.84-.473-1.469Zm10.054-10.434v.428c.624-.822 1.305-1.424 2.044-1.809.739-.385 1.588-.575 2.548-.575.933 0 1.765.204 2.504.61a3.845 3.845 0 0 1 1.645 1.721c.235.434.385.898.456 1.403.066.5.101 1.136.101 1.915v6.587c0 .707-.163 1.243-.486 1.605-.323.363-.748.544-1.265.544-.526 0-.956-.185-1.287-.557-.328-.372-.491-.902-.491-1.592v-5.901c0-1.164-.164-2.057-.487-2.677-.323-.614-.969-.924-1.937-.924-.629 0-1.204.186-1.726.562-.517.376-.898.893-1.137 1.552-.172.527-.26 1.509-.26 2.955v4.433c0 .716-.168 1.251-.5 1.61-.332.358-.761.54-1.283.54a1.6 1.6 0 0 1-1.256-.558c-.328-.372-.491-.902-.491-1.592V39.256c0-.673.146-1.177.438-1.51.296-.33.694-.499 1.203-.499.309 0 .592.075.84.221.252.146.451.368.602.66.15.291.225.654.225 1.075Zm16.358.052v10.228c0 .707-.168 1.243-.504 1.605-.336.363-.761.544-1.278.544-.518 0-.938-.185-1.261-.557-.323-.372-.487-.902-.487-1.592V39.362c0-.704.164-1.23.487-1.584.323-.354.743-.53 1.261-.53.517 0 .942.176 1.278.53.336.354.504.85.504 1.477Zm-1.747-3.653a1.86 1.86 0 0 1-1.26-.452c-.35-.3-.523-.73-.523-1.282 0-.496.178-.907.536-1.23a1.808 1.808 0 0 1 1.247-.487c.46 0 .863.146 1.217.438.354.297.53.721.53 1.279 0 .544-.172.968-.517 1.274a1.79 1.79 0 0 1-1.23.46Zm5.605 1.964h.389v-2.128c0-.57.013-1.017.044-1.34.031-.328.115-.606.253-.836.137-.243.336-.443.597-.593a1.68 1.68 0 0 1 .867-.226c.446 0 .849.168 1.212.505.243.225.393.5.46.827.066.323.097.783.097 1.38v2.41h1.296c.5 0 .885.12 1.146.355.265.238.398.544.398.91 0 .479-.19.81-.566 1-.376.19-.912.284-1.615.284h-.659v6.502c0 .553.018.982.058 1.278.039.297.141.54.309.726.173.186.447.279.827.279.204 0 .487-.036.841-.11.354-.072.632-.112.827-.112.288 0 .544.115.774.346.23.23.341.513.341.849 0 .57-.31 1.004-.929 1.305-.624.305-1.518.456-2.685.456-1.106 0-1.942-.187-2.508-.558a2.575 2.575 0 0 1-1.119-1.544c-.178-.654-.266-1.53-.266-2.627v-6.79h-.464c-.513 0-.903-.12-1.168-.363a1.175 1.175 0 0 1-.403-.92c0-.367.142-.673.421-.911.283-.235.69-.354 1.225-.354Zm18.14 12.08c-.858.664-1.685 1.159-2.481 1.491-.801.332-1.699.495-2.69.495-.906 0-1.707-.181-2.393-.54-.685-.358-1.216-.84-1.588-1.455a3.79 3.79 0 0 1-.557-1.995c0-.969.305-1.791.92-2.472.615-.686 1.46-1.142 2.535-1.376a75.26 75.26 0 0 1 1.667-.35 62.127 62.127 0 0 0 2.287-.5c.633-.15 1.323-.331 2.066-.548-.044-.933-.23-1.619-.562-2.052-.336-.438-1.021-.655-2.07-.655-.898 0-1.575.124-2.026.376-.455.248-.845.624-1.168 1.128-.323.5-.552.827-.685.99-.137.16-.425.24-.863.24-.398 0-.743-.129-1.03-.385a1.242 1.242 0 0 1-.434-.978c0-.623.221-1.23.659-1.818.442-.588 1.128-1.07 2.061-1.45.934-.381 2.097-.572 3.491-.572 1.552 0 2.778.187 3.666.554.89.367 1.518.946 1.885 1.742.367.797.553 1.85.553 3.163 0 .832-.005 1.535-.009 2.115a327.09 327.09 0 0 1-.018 1.933c0 .663.111 1.358.332 2.079.221.716.327 1.18.327 1.389 0 .363-.168.694-.508.99-.345.297-.73.447-1.164.447-.362 0-.721-.168-1.075-.508-.353-.341-.729-.832-1.128-1.478Zm-.234-5.127c-.518.19-1.27.394-2.26.602-.987.212-1.672.372-2.053.469-.38.102-.743.296-1.088.584-.345.292-.517.694-.517 1.216 0 .536.203.991.61 1.367.402.376.933.566 1.592.566a4.13 4.13 0 0 0 1.933-.46c.593-.31 1.027-.703 1.305-1.19.319-.535.478-1.42.478-2.65v-.504Zm6.6-6.953h.389v-2.128c0-.57.013-1.017.044-1.34a1.98 1.98 0 0 1 .253-.836c.137-.243.336-.443.597-.593a1.68 1.68 0 0 1 .867-.226c.446 0 .849.168 1.212.505.243.225.394.5.46.827.066.323.097.783.097 1.38v2.41h1.296c.5 0 .885.12 1.146.355.265.238.398.544.398.91 0 .479-.19.81-.566 1-.376.19-.912.284-1.615.284h-.659v6.502c0 .553.018.982.058 1.278.039.297.141.54.309.726.173.186.447.279.827.279.204 0 .487-.036.841-.11.354-.072.633-.112.827-.112.288 0 .544.115.774.346.23.23.341.513.341.849 0 .57-.31 1.004-.929 1.305-.624.305-1.517.456-2.685.456-1.106 0-1.942-.187-2.508-.558a2.575 2.575 0 0 1-1.119-1.544c-.177-.654-.266-1.53-.266-2.627v-6.79h-.464c-.513 0-.903-.12-1.168-.363a1.175 1.175 0 0 1-.403-.92c0-.367.142-.673.421-.911.283-.235.69-.354 1.225-.354Zm19.069 7.75h-6.922c.009.805.172 1.513.486 2.127.314.615.735 1.075 1.257 1.385a3.296 3.296 0 0 0 1.729.469c.425 0 .81-.05 1.159-.15.354-.098.69-.253 1.018-.465.331-.212.632-.438.906-.681.279-.243.637-.57 1.08-.987.181-.155.438-.234.774-.234.362 0 .659.102.885.3.221.195.336.478.336.841 0 .319-.129.69-.376 1.12-.252.424-.629.835-1.137 1.225-.504.393-1.137.72-1.902.977-.765.261-1.646.39-2.637.39-2.273 0-4.038-.65-5.299-1.947-1.261-1.296-1.889-3.052-1.889-5.273 0-1.044.155-2.017.465-2.91a6.446 6.446 0 0 1 1.358-2.3 5.922 5.922 0 0 1 2.203-1.47c.871-.34 1.84-.512 2.901-.512 1.385 0 2.571.292 3.557.876.991.583 1.729 1.335 2.225 2.264.491.925.739 1.867.739 2.827 0 .889-.257 1.468-.766 1.734-.508.26-1.225.394-2.15.394Zm-6.922-2.017h6.414c-.084-1.208-.412-2.11-.978-2.712-.566-.597-1.309-.898-2.234-.898-.884 0-1.605.305-2.172.911-.566.61-.911 1.509-1.03 2.699Zm21.763 6.347c-.858.664-1.685 1.159-2.481 1.491-.801.332-1.699.495-2.69.495-.907 0-1.707-.181-2.393-.54-.685-.358-1.216-.84-1.588-1.455a3.79 3.79 0 0 1-.557-1.995c0-.969.305-1.791.92-2.472.615-.686 1.46-1.142 2.535-1.376a75.26 75.26 0 0 1 1.667-.35 62.127 62.127 0 0 0 2.287-.5c.633-.15 1.323-.331 2.066-.548-.044-.933-.23-1.619-.562-2.052-.336-.438-1.022-.655-2.07-.655-.898 0-1.575.124-2.026.376-.456.248-.845.624-1.168 1.128-.323.5-.553.827-.685.99-.138.16-.425.24-.863.24a1.5 1.5 0 0 1-1.031-.385 1.245 1.245 0 0 1-.433-.978c0-.623.221-1.23.659-1.818.442-.588 1.128-1.07 2.061-1.45.934-.381 2.097-.572 3.49-.572 1.553 0 2.778.187 3.667.554.889.367 1.518.946 1.885 1.742.367.797.553 1.85.553 3.163 0 .832-.005 1.535-.009 2.115-.005.579-.009 1.225-.018 1.933 0 .663.111 1.358.332 2.079.221.716.327 1.18.327 1.389 0 .363-.168.694-.508.99-.346.297-.73.447-1.164.447-.363 0-.721-.168-1.075-.508-.354-.341-.73-.832-1.128-1.478Zm-.234-5.127c-.518.19-1.27.394-2.261.602a61.76 61.76 0 0 0-2.052.469 2.844 2.844 0 0 0-1.088.584c-.345.292-.518.694-.518 1.216 0 .536.204.991.611 1.367.402.376.933.566 1.592.566a4.13 4.13 0 0 0 1.933-.46c.593-.31 1.027-.703 1.305-1.19.318-.535.478-1.42.478-2.65v-.504ZM216.225 70.778h-3.526v5.38c0 .769-.181 1.348-.544 1.746a1.781 1.781 0 0 1-1.371.598c-.58 0-1.049-.195-1.403-.589-.354-.393-.53-.973-.53-1.73V61.539c0-.845.194-1.451.583-1.814.39-.363 1.005-.544 1.854-.544h4.937c1.459 0 2.583.11 3.37.336a5.04 5.04 0 0 1 2.017 1.075 4.852 4.852 0 0 1 1.288 1.84c.296.726.442 1.544.442 2.45 0 1.938-.597 3.402-1.787 4.402-1.195.995-2.968 1.495-5.33 1.495Zm-.934-8.705h-2.592v5.812h2.592c.907 0 1.668-.097 2.278-.287.606-.19 1.071-.5 1.394-.933.318-.43.477-1 .477-1.7 0-.84-.247-1.52-.738-2.047-.553-.562-1.69-.845-3.411-.845Zm20.211 10.112h-6.923c.009.805.172 1.513.487 2.128.314.615.734 1.075 1.256 1.384a3.295 3.295 0 0 0 1.729.469c.425 0 .81-.049 1.159-.15.354-.098.69-.253 1.018-.465a7.36 7.36 0 0 0 .907-.681c.278-.243.636-.57 1.079-.986.181-.155.438-.235.774-.235.363 0 .659.102.885.3.221.196.336.478.336.841 0 .319-.128.69-.376 1.12-.252.424-.628.835-1.137 1.225-.504.393-1.137.72-1.902.977-.765.261-1.646.39-2.636.39-2.274 0-4.039-.65-5.3-1.947-1.26-1.296-1.889-3.052-1.889-5.273 0-1.043.155-2.017.465-2.91a6.46 6.46 0 0 1 1.358-2.3 5.922 5.922 0 0 1 2.203-1.469c.871-.34 1.84-.513 2.901-.513 1.385 0 2.571.292 3.557.876.991.584 1.73 1.336 2.225 2.265.491.924.739 1.866.739 2.826 0 .89-.257 1.469-.766 1.734-.508.261-1.225.394-2.149.394Zm-6.923-2.017h6.414c-.084-1.208-.412-2.11-.978-2.712-.566-.597-1.309-.898-2.234-.898-.884 0-1.605.306-2.171.912-.567.61-.912 1.508-1.031 2.698Zm16.659 3.229v2.955c0 .717-.168 1.252-.505 1.61-.336.358-.76.54-1.278.54-.509 0-.929-.182-1.256-.544-.328-.363-.491-.898-.491-1.606v-9.851c0-1.588.575-2.385 1.72-2.385.584 0 1.009.186 1.266.558.261.371.402.924.429 1.65.42-.725.853-1.279 1.3-1.65.447-.372 1.04-.558 1.783-.558a4.55 4.55 0 0 1 2.163.558c.699.371 1.048.867 1.048 1.482 0 .433-.146.787-.446 1.07-.297.283-.62.42-.965.42-.128 0-.442-.08-.938-.239-.5-.159-.937-.238-1.318-.238-.518 0-.938.137-1.269.407-.328.274-.584.677-.766 1.212-.181.535-.305 1.172-.375 1.91a30.479 30.479 0 0 0-.102 2.699Zm19.18.487c0 .973-.239 1.809-.713 2.503-.473.695-1.176 1.221-2.105 1.58-.929.358-2.057.535-3.388.535-1.27 0-2.358-.195-3.265-.584-.907-.385-1.575-.872-2.008-1.456-.429-.58-.646-1.163-.646-1.751 0-.39.137-.721.416-.995.274-.28.624-.416 1.048-.416.372 0 .655.093.854.274.199.181.389.433.57.765.363.628.797 1.102 1.301 1.411.504.314 1.194.469 2.066.469.708 0 1.287-.159 1.738-.473.456-.314.681-.677.681-1.084 0-.624-.234-1.075-.703-1.362-.473-.284-1.247-.558-2.327-.819-1.216-.3-2.207-.62-2.972-.95-.761-.332-1.372-.775-1.832-1.319-.455-.544-.685-1.216-.685-2.008 0-.712.212-1.38.632-2.013.425-.633 1.049-1.132 1.876-1.508.823-.376 1.818-.567 2.986-.567.915 0 1.738.094 2.464.284.73.19 1.34.446 1.827.765.491.323.862.677 1.114 1.066.257.39.385.765.385 1.141 0 .403-.137.739-.411.996-.27.26-.659.389-1.159.389-.363 0-.673-.102-.929-.31-.252-.208-.544-.517-.876-.933a3.17 3.17 0 0 0-.942-.832c-.363-.208-.854-.31-1.478-.31-.637 0-1.167.138-1.592.407-.42.275-.633.615-.633 1.022 0 .372.155.677.465.912.314.238.73.438 1.256.592.526.155 1.252.345 2.176.57 1.097.266 1.995.59 2.69.96.694.372 1.221.81 1.579 1.319.358.504.54 1.08.54 1.73Zm16.574-2.57c0 1.057-.164 2.026-.491 2.915-.332.889-.805 1.654-1.429 2.291a6.233 6.233 0 0 1-2.229 1.468c-.863.341-1.836.514-2.915.514-1.075 0-2.039-.173-2.893-.518a6.42 6.42 0 0 1-2.225-1.486 6.407 6.407 0 0 1-1.424-2.278c-.323-.88-.487-1.85-.487-2.91 0-1.072.164-2.053.491-2.942.332-.89.801-1.65 1.416-2.283a6.266 6.266 0 0 1 2.229-1.455c.871-.34 1.836-.513 2.893-.513 1.07 0 2.044.172 2.915.517.872.345 1.619.84 2.243 1.482a6.317 6.317 0 0 1 1.42 2.282c.322.88.486 1.854.486 2.915Zm-3.556 0c0-1.443-.319-2.562-.951-3.367-.637-.8-1.487-1.203-2.557-1.203-.694 0-1.3.177-1.827.535-.526.359-.933.89-1.217 1.588-.287.7-.428 1.517-.428 2.446 0 .925.141 1.735.42 2.425.283.69.681 1.22 1.203 1.588.522.367 1.141.548 1.849.548 1.07 0 1.92-.402 2.557-1.212.632-.805.951-1.924.951-3.349Zm15.615 5.202c-.858.663-1.686 1.158-2.482 1.49-.801.332-1.699.496-2.689.496-.907 0-1.708-.182-2.393-.54-.686-.358-1.217-.84-1.589-1.455a3.79 3.79 0 0 1-.557-1.995c0-.97.305-1.792.92-2.473.615-.686 1.46-1.141 2.535-1.376.221-.053.778-.168 1.668-.35a63.293 63.293 0 0 0 2.287-.5 42.46 42.46 0 0 0 2.065-.548c-.044-.933-.23-1.618-.562-2.052-.336-.438-1.021-.655-2.07-.655-.898 0-1.574.124-2.026.376-.455.248-.845.624-1.168 1.128-.322.5-.552.828-.685.991-.137.16-.425.239-.863.239-.398 0-.743-.128-1.03-.385a1.243 1.243 0 0 1-.434-.977c0-.624.221-1.23.659-1.819.443-.588 1.128-1.07 2.061-1.45.934-.38 2.097-.571 3.491-.571 1.552 0 2.778.186 3.667.553.889.367 1.517.947 1.884 1.743.367.796.553 1.849.553 3.163a326.675 326.675 0 0 1-.027 4.048c0 .662.111 1.357.332 2.078.222.717.328 1.181.328 1.389 0 .363-.169.695-.509.99-.345.297-.73.448-1.164.448-.362 0-.72-.168-1.075-.509-.353-.34-.729-.832-1.127-1.477Zm-.235-5.127c-.517.19-1.269.394-2.26.601-.987.213-1.672.372-2.053.47-.38.1-.743.296-1.088.583-.345.292-.517.695-.517 1.216 0 .536.203.991.61 1.367.403.376.933.567 1.592.567.699 0 1.345-.155 1.933-.46.593-.31 1.027-.704 1.306-1.19.318-.536.477-1.42.477-2.65v-.504Zm10.599-5.317v.429c.624-.823 1.305-1.425 2.043-1.81.739-.384 1.588-.575 2.548-.575.934 0 1.765.204 2.504.611a3.847 3.847 0 0 1 1.646 1.72c.234.434.384.899.455 1.403.066.5.102 1.137.102 1.915v6.587c0 .707-.164 1.243-.487 1.605-.323.363-.747.545-1.265.545-.526 0-.955-.186-1.287-.558-.327-.371-.491-.902-.491-1.592v-5.901c0-1.163-.164-2.057-.487-2.676-.322-.615-.968-.925-1.937-.925-.628 0-1.203.186-1.725.562-.518.376-.898.894-1.137 1.553-.173.526-.261 1.508-.261 2.954v4.433c0 .717-.168 1.252-.5 1.61-.332.358-.761.54-1.283.54a1.6 1.6 0 0 1-1.256-.558c-.327-.371-.491-.902-.491-1.592V66.125c0-.672.146-1.177.438-1.509.296-.331.694-.5 1.203-.5a1.555 1.555 0 0 1 1.442.88c.15.293.226.656.226 1.076Zm23.028 6.113h-6.923c.01.805.173 1.513.487 2.128.314.615.734 1.075 1.257 1.384a3.292 3.292 0 0 0 1.729.469c.425 0 .81-.049 1.159-.15.354-.098.69-.253 1.017-.465.332-.212.633-.438.907-.681.279-.243.637-.57 1.08-.986.181-.155.438-.235.774-.235.362 0 .659.102.884.3.222.196.336.478.336.841 0 .319-.128.69-.376 1.12-.252.424-.628.835-1.136 1.225-.504.393-1.137.72-1.903.977-.765.261-1.645.39-2.636.39-2.273 0-4.039-.65-5.299-1.947-1.261-1.296-1.889-3.052-1.889-5.273a8.86 8.86 0 0 1 .464-2.91 6.462 6.462 0 0 1 1.359-2.3 5.927 5.927 0 0 1 2.202-1.469c.872-.34 1.841-.513 2.902-.513 1.385 0 2.57.292 3.557.876.991.584 1.729 1.336 2.225 2.265.491.924.738 1.866.738 2.826 0 .89-.256 1.469-.765 1.734-.508.261-1.225.394-2.15.394Zm-6.923-2.017h6.415c-.084-1.208-.412-2.11-.978-2.712-.566-.597-1.309-.898-2.234-.898-.885 0-1.605.306-2.172.912-.566.61-.911 1.508-1.031 2.698Zm13.156 6.184v-15.34c0-.708.159-1.244.473-1.606.314-.363.739-.545 1.274-.545.531 0 .964.182 1.292.54.327.358.491.894.491 1.61v15.341c0 .717-.168 1.252-.5 1.61-.332.358-.761.54-1.283.54-.517 0-.938-.186-1.26-.558-.323-.371-.487-.902-.487-1.592Zm20.768-5.039c0 1.058-.164 2.027-.491 2.915-.332.89-.805 1.655-1.429 2.292a6.242 6.242 0 0 1-2.229 1.468c-.863.341-1.836.514-2.915.514-1.075 0-2.039-.173-2.893-.518a6.42 6.42 0 0 1-2.225-1.486 6.393 6.393 0 0 1-1.424-2.278c-.323-.88-.487-1.85-.487-2.91 0-1.072.164-2.053.491-2.942.332-.89.801-1.65 1.415-2.283a6.27 6.27 0 0 1 2.23-1.455c.871-.34 1.836-.513 2.893-.513 1.07 0 2.043.172 2.915.517.871.345 1.619.84 2.243 1.482a6.301 6.301 0 0 1 1.419 2.282c.323.88.487 1.854.487 2.915Zm-3.557 0c0-1.442-.318-2.56-.951-3.366-.636-.8-1.486-1.203-2.556-1.203-.695 0-1.301.177-1.827.535-.526.359-.933.89-1.217 1.588-.287.7-.429 1.517-.429 2.446 0 .925.142 1.735.421 2.425.283.69.681 1.22 1.203 1.588.522.367 1.141.548 1.849.548 1.07 0 1.92-.402 2.556-1.212.633-.805.951-1.924.951-3.349Zm10.179 2.084v2.955c0 .717-.168 1.252-.504 1.61-.336.358-.761.54-1.279.54-.508 0-.928-.182-1.256-.544-.327-.363-.491-.898-.491-1.606v-9.851c0-1.588.575-2.385 1.721-2.385.584 0 1.008.186 1.265.558.261.371.402.924.429 1.65.42-.725.854-1.279 1.301-1.65.446-.372 1.039-.558 1.782-.558a4.55 4.55 0 0 1 2.163.558c.699.371 1.049.867 1.049 1.482 0 .433-.146.787-.447 1.07-.297.283-.619.42-.964.42-.129 0-.443-.08-.938-.239-.5-.159-.938-.238-1.319-.238-.517 0-.937.137-1.269.407-.327.274-.584.677-.765 1.212-.182.535-.306 1.172-.376 1.91a30.479 30.479 0 0 0-.102 2.699Zm-138.764 27.599c0 .438-.133.911-.398 1.411-.261.5-.664.978-1.204 1.429-.539.451-1.22.819-2.043 1.093-.818.278-1.743.416-2.774.416-2.185 0-3.892-.637-5.118-1.911-1.229-1.275-1.844-2.982-1.844-5.127 0-1.451.283-2.734.845-3.849a6.026 6.026 0 0 1 2.437-2.583c1.066-.61 2.336-.916 3.813-.916.916 0 1.756.133 2.521.403.761.27 1.411.615 1.942 1.04.531.424.938.875 1.217 1.353.283.482.424.929.424 1.345 0 .424-.159.783-.473 1.079a1.636 1.636 0 0 1-1.15.438c-.292 0-.535-.075-.73-.226-.194-.15-.411-.393-.654-.73-.434-.654-.885-1.15-1.354-1.477-.473-.327-1.071-.491-1.796-.491-1.044 0-1.889.407-2.526 1.225-.641.814-.96 1.929-.96 3.344 0 .664.084 1.275.248 1.832.164.557.398 1.035.712 1.424.31.394.686.69 1.128.894a3.42 3.42 0 0 0 1.451.305c.708 0 1.314-.164 1.818-.491.509-.327.956-.832 1.345-1.504.212-.398.447-.708.699-.929a1.32 1.32 0 0 1 .92-.34c.433 0 .792.168 1.075.495.283.327.429.677.429 1.048Zm12.589 2.38v-.456a7.88 7.88 0 0 1-1.336 1.35 4.886 4.886 0 0 1-1.526.809c-.553.177-1.181.266-1.889.266-.858 0-1.623-.177-2.3-.531a3.88 3.88 0 0 1-1.575-1.465c-.438-.752-.659-1.831-.659-3.242V93.1c0-.712.159-1.238.478-1.588.318-.35.743-.526 1.269-.526.531 0 .965.177 1.292.53.327.355.491.88.491 1.584v5.662c0 .819.071 1.509.208 2.066.137.557.385.995.743 1.309.358.314.845.474 1.46.474.597 0 1.159-.177 1.685-.531a3.113 3.113 0 0 0 1.155-1.389c.199-.5.296-1.597.296-3.291v-4.3c0-.703.164-1.23.491-1.583.332-.354.761-.531 1.287-.531.527 0 .951.177 1.27.526.323.35.482.876.482 1.588v10.249c0 .673-.155 1.177-.46 1.518-.31.336-.703.504-1.19.504-.482 0-.885-.177-1.199-.526-.314-.35-.473-.841-.473-1.469Zm24.873-2.623c0 .973-.239 1.809-.712 2.504-.473.694-1.177 1.22-2.106 1.579-.929.358-2.057.535-3.388.535-1.27 0-2.358-.195-3.265-.584-.906-.385-1.574-.871-2.008-1.455-.429-.58-.646-1.163-.646-1.752 0-.389.137-.721.416-.995.274-.279.624-.416 1.049-.416.371 0 .654.093.853.274.199.182.39.434.571.765.363.629.796 1.102 1.3 1.412.505.314 1.195.468 2.066.468.708 0 1.287-.159 1.739-.473.455-.314.681-.677.681-1.084 0-.623-.235-1.075-.703-1.362-.474-.283-1.248-.557-2.327-.818-1.217-.301-2.207-.62-2.973-.951-.761-.332-1.371-.775-1.831-1.319-.456-.544-.686-1.216-.686-2.008 0-.712.213-1.38.633-2.012.424-.633 1.048-1.133 1.875-1.509.823-.376 1.818-.566 2.986-.566.916 0 1.739.093 2.464.283.73.19 1.34.447 1.827.765.491.323.863.677 1.115 1.066.256.39.384.766.384 1.141 0 .403-.137.74-.411.996-.27.26-.659.39-1.159.39-.362 0-.672-.103-.929-.31-.252-.208-.544-.518-.876-.934a3.17 3.17 0 0 0-.942-.831c-.363-.208-.853-.31-1.477-.31-.637 0-1.168.137-1.593.407-.42.274-.632.614-.632 1.022 0 .371.155.676.464.91.314.24.73.439 1.256.594.527.154 1.252.345 2.177.57 1.097.266 1.995.588 2.689.96.695.372 1.221.81 1.579 1.318.359.505.54 1.08.54 1.73Zm6.861-7.759v10.227c0 .708-.168 1.243-.505 1.606-.336.363-.761.544-1.278.544s-.938-.186-1.261-.557c-.323-.372-.486-.903-.486-1.593v-10.12c0-.704.163-1.23.486-1.584.323-.354.744-.531 1.261-.531.517 0 .942.177 1.278.53.337.355.505.85.505 1.478Zm-1.748-3.654c-.491 0-.911-.15-1.26-.45-.35-.302-.522-.73-.522-1.284 0-.495.177-.906.535-1.23a1.808 1.808 0 0 1 1.247-.486c.46 0 .863.146 1.217.438.354.296.531.721.531 1.278 0 .544-.173.969-.518 1.274a1.79 1.79 0 0 1-1.23.46Zm8.944 3.601v.43c.624-.824 1.306-1.425 2.044-1.81.739-.385 1.588-.575 2.548-.575.934 0 1.765.203 2.504.61a3.84 3.84 0 0 1 1.645 1.721c.235.434.385.898.456 1.402.066.5.102 1.137.102 1.916v6.586c0 .708-.164 1.243-.487 1.606-.323.363-.747.544-1.265.544-.526 0-.955-.186-1.287-.557-.327-.372-.491-.903-.491-1.593v-5.9c0-1.164-.164-2.058-.487-2.677-.323-.615-.969-.924-1.937-.924a2.88 2.88 0 0 0-1.725.561c-.518.376-.898.894-1.137 1.553-.173.526-.261 1.508-.261 2.955v4.432c0 .717-.168 1.252-.5 1.61-.332.359-.761.54-1.283.54-.509 0-.929-.186-1.256-.557-.328-.372-.491-.903-.491-1.593V92.994c0-.672.146-1.177.438-1.508.296-.332.694-.5 1.203-.5.31 0 .593.075.84.22.253.147.452.368.602.66.15.292.225.655.225 1.075Zm22.848 10.408V103a8.768 8.768 0 0 1-1.407 1.327c-.46.341-.964.602-1.504.779a5.668 5.668 0 0 1-1.769.265 5.198 5.198 0 0 1-2.349-.54 5.453 5.453 0 0 1-1.875-1.535c-.527-.663-.925-1.446-1.199-2.344a10.09 10.09 0 0 1-.407-2.915c0-2.212.539-3.937 1.619-5.171 1.079-1.234 2.503-1.853 4.264-1.853 1.022 0 1.88.176 2.579.526.699.35 1.384.889 2.048 1.619v-5.224c0-.726.146-1.274.434-1.646.291-.371.703-.557 1.238-.557s.947.172 1.239.513c.287.34.433.845.433 1.508v15.597c0 .673-.155 1.182-.464 1.518-.315.336-.717.504-1.208.504-.482 0-.885-.177-1.199-.526-.314-.35-.473-.85-.473-1.496Zm-6.954-5.193c0 .96.151 1.774.447 2.451.296.672.703 1.177 1.225 1.517a3.024 3.024 0 0 0 1.694.513c.624 0 1.19-.163 1.704-.486.513-.323.924-.819 1.229-1.486.305-.673.46-1.505.46-2.509 0-.937-.155-1.747-.46-2.424-.305-.681-.721-1.199-1.243-1.557a2.962 2.962 0 0 0-1.716-.535 2.89 2.89 0 0 0-1.734.548c-.509.367-.902.894-1.186 1.58-.278.69-.42 1.486-.42 2.388Zm17.69 2.11v2.955c0 .717-.168 1.252-.505 1.61-.336.359-.76.54-1.278.54-.509 0-.929-.181-1.256-.544-.328-.363-.491-.898-.491-1.606v-9.85c0-1.589.575-2.385 1.72-2.385.584 0 1.009.186 1.265.557.261.372.403.925.43 1.65.42-.725.853-1.278 1.3-1.65.447-.371 1.04-.557 1.783-.557a4.56 4.56 0 0 1 2.163.557c.699.372 1.048.867 1.048 1.482 0 .433-.146.787-.447 1.07-.296.284-.619.42-.964.42-.128 0-.442-.079-.938-.238-.5-.16-.938-.239-1.318-.239-.518 0-.938.137-1.269.407-.328.274-.584.677-.766 1.212-.181.535-.305 1.172-.375 1.91a30.477 30.477 0 0 0-.102 2.699Zm20.684-2.083c0 1.057-.164 2.026-.491 2.915-.332.889-.805 1.654-1.429 2.291a6.236 6.236 0 0 1-2.23 1.469c-.862.341-1.836.513-2.915.513-1.075 0-2.039-.172-2.893-.517a6.432 6.432 0 0 1-2.225-1.487 6.405 6.405 0 0 1-1.424-2.278c-.323-.88-.487-1.849-.487-2.91 0-1.071.164-2.053.491-2.942.332-.89.801-1.65 1.416-2.283a6.276 6.276 0 0 1 2.229-1.455c.872-.34 1.836-.513 2.893-.513 1.071 0 2.044.172 2.915.517.872.345 1.619.84 2.243 1.482a6.304 6.304 0 0 1 1.42 2.283c.323.88.487 1.853.487 2.915Zm-3.557 0c0-1.442-.318-2.561-.951-3.366-.637-.8-1.486-1.204-2.557-1.204-.694 0-1.3.177-1.827.536-.526.358-.933.889-1.216 1.588-.288.698-.429 1.517-.429 2.446 0 .924.141 1.734.42 2.424.283.69.681 1.221 1.203 1.588s1.141.548 1.849.548c1.071 0 1.92-.402 2.557-1.212.633-.805.951-1.924.951-3.348Zm18.433.256v4.703c0 .743-.168 1.3-.505 1.672-.336.371-.783.557-1.331.557-.535 0-.969-.186-1.301-.557-.331-.372-.5-.929-.5-1.672v-5.636c0-.893-.03-1.584-.092-2.075-.058-.49-.222-.898-.492-1.212-.269-.314-.689-.473-1.273-.473-1.159 0-1.92.398-2.287 1.195-.367.791-.553 1.932-.553 3.419v4.782c0 .734-.168 1.291-.5 1.667-.332.376-.77.562-1.31.562-.535 0-.973-.186-1.313-.562-.341-.376-.513-.933-.513-1.667V93.021c0-.664.155-1.173.46-1.518.305-.344.707-.517 1.207-.517.487 0 .889.163 1.212.486.323.323.487.77.487 1.34v.337c.61-.734 1.269-1.274 1.968-1.619.699-.345 1.478-.517 2.332-.517.893 0 1.654.176 2.295.53.642.354 1.168.89 1.58 1.606.597-.725 1.238-1.26 1.919-1.61a4.903 4.903 0 0 1 2.27-.526c.968 0 1.8.19 2.499.57.699.38 1.225.924 1.57 1.632.301.637.451 1.646.451 3.017v6.91c0 .743-.168 1.3-.504 1.672-.336.371-.783.557-1.331.557-.536 0-.973-.186-1.314-.562-.341-.376-.513-.933-.513-1.667v-5.95c0-.76-.031-1.367-.098-1.827a2.114 2.114 0 0 0-.526-1.154c-.283-.31-.717-.465-1.296-.465a2.36 2.36 0 0 0-1.331.416 2.815 2.815 0 0 0-.978 1.115c-.261.592-.389 1.65-.389 3.162Zm20.887 4.937v-.456a7.88 7.88 0 0 1-1.336 1.35 4.886 4.886 0 0 1-1.526.809c-.553.177-1.181.266-1.889.266-.858 0-1.623-.177-2.3-.531a3.88 3.88 0 0 1-1.575-1.465c-.438-.752-.659-1.831-.659-3.242V93.1c0-.712.159-1.238.478-1.588.318-.35.743-.526 1.269-.526.531 0 .965.177 1.292.53.327.355.491.88.491 1.584v5.662c0 .819.071 1.509.208 2.066.137.557.385.995.743 1.309.359.314.845.474 1.46.474.597 0 1.159-.177 1.685-.531a3.113 3.113 0 0 0 1.155-1.389c.199-.5.296-1.597.296-3.291v-4.3c0-.703.164-1.23.491-1.583.332-.354.761-.531 1.288-.531.526 0 .95.177 1.269.526.323.35.482.876.482 1.588v10.249c0 .673-.155 1.177-.46 1.518-.31.336-.703.504-1.19.504-.482 0-.884-.177-1.198-.526-.315-.35-.474-.841-.474-1.469Zm7.184-.155v-15.34c0-.708.159-1.243.473-1.606.314-.363.739-.544 1.274-.544.531 0 .964.181 1.292.54.327.358.491.893.491 1.61v15.34c0 .717-.168 1.252-.5 1.61-.332.359-.761.54-1.283.54-.517 0-.938-.186-1.261-.557-.323-.372-.486-.903-.486-1.593Zm16.45-17.172h5.017c1.305 0 2.424.12 3.357.363a6.198 6.198 0 0 1 2.544 1.362c1.977 1.695 2.968 4.273 2.968 7.728 0 1.142-.098 2.181-.296 3.123a9.323 9.323 0 0 1-.921 2.548 7.89 7.89 0 0 1-1.596 2.03 6.559 6.559 0 0 1-1.672 1.098 7.458 7.458 0 0 1-1.951.583c-.695.111-1.482.169-2.354.169h-5.016c-.699 0-1.225-.107-1.583-.319a1.47 1.47 0 0 1-.691-.894c-.11-.384-.163-.884-.163-1.495V88.407c0-.827.186-1.429.557-1.8.372-.372.973-.558 1.8-.558Zm1.491 3.052V102h2.92c.637 0 1.141-.017 1.504-.053a4.772 4.772 0 0 0 1.128-.256 3.167 3.167 0 0 0 1.008-.584c1.287-1.088 1.934-2.964 1.934-5.627 0-1.876-.284-3.282-.85-4.216-.566-.933-1.265-1.526-2.092-1.782-.832-.252-1.836-.38-3.008-.38h-2.544Zm29.107 9.082c0 1.057-.164 2.026-.491 2.915-.332.889-.805 1.654-1.429 2.291a6.236 6.236 0 0 1-2.23 1.469c-.862.341-1.835.513-2.914.513-1.075 0-2.04-.172-2.894-.517a6.427 6.427 0 0 1-2.224-1.487 6.407 6.407 0 0 1-1.425-2.278c-.323-.88-.487-1.849-.487-2.91 0-1.071.164-2.053.491-2.942.332-.89.801-1.65 1.416-2.283a6.276 6.276 0 0 1 2.229-1.455c.872-.34 1.836-.513 2.894-.513 1.07 0 2.043.172 2.914.517.872.345 1.619.84 2.243 1.482a6.304 6.304 0 0 1 1.42 2.283c.323.88.487 1.853.487 2.915Zm-3.557 0c0-1.442-.318-2.561-.951-3.366-.637-.8-1.486-1.204-2.556-1.204-.695 0-1.301.177-1.827.536-.527.358-.934.889-1.217 1.588-.288.698-.429 1.517-.429 2.446 0 .924.142 1.734.42 2.424.283.69.681 1.221 1.204 1.588.521.367 1.141.548 1.849.548 1.07 0 1.919-.402 2.556-1.212.633-.805.951-1.924.951-3.348Zm8.874-4.994 2.309 7.909 2.097-7.352c.225-.77.393-1.291.499-1.575.107-.278.31-.548.611-.805.296-.252.703-.38 1.225-.38.526 0 .938.128 1.234.38.301.257.509.535.628.832.124.296.292.814.509 1.548l2.097 7.352 2.331-7.91c.159-.57.283-.981.376-1.238.097-.252.257-.478.482-.672.226-.195.548-.292.973-.292.42 0 .788.146 1.102.442.309.292.464.637.464 1.035 0 .363-.132.912-.402 1.646l-2.889 8.475a29.014 29.014 0 0 1-.584 1.557 2.296 2.296 0 0 1-.654.854c-.297.252-.704.376-1.226.376-.535 0-.955-.133-1.261-.402a2.4 2.4 0 0 1-.681-.983 18.238 18.238 0 0 1-.477-1.517l-2.022-6.892-1.96 6.892c-.256.96-.539 1.681-.84 2.172-.301.487-.836.73-1.593.73-.389 0-.72-.075-.995-.225a1.9 1.9 0 0 1-.676-.651 4.932 4.932 0 0 1-.483-.995c-.137-.385-.243-.69-.323-.916l-2.862-8.475c-.287-.796-.429-1.345-.429-1.646 0-.38.151-.72.456-1.022a1.499 1.499 0 0 1 1.11-.455c.589 0 .987.168 1.195.5.207.331.429.898.659 1.703Zm22.913-.248v.43c.624-.824 1.305-1.425 2.044-1.81.738-.385 1.588-.575 2.548-.575.933 0 1.765.203 2.503.61a3.842 3.842 0 0 1 1.646 1.721c.234.434.385.898.455 1.402.067.5.102 1.137.102 1.916v6.586c0 .708-.163 1.243-.486 1.606-.323.363-.748.544-1.265.544-.527 0-.956-.186-1.288-.557-.327-.372-.491-.903-.491-1.593v-5.9c0-1.164-.163-2.058-.486-2.677-.323-.615-.969-.924-1.938-.924-.628 0-1.203.185-1.725.561-.517.376-.898.894-1.137 1.553-.172.526-.261 1.508-.261 2.955v4.432c0 .717-.168 1.252-.5 1.61-.331.359-.761.54-1.282.54-.509 0-.929-.186-1.257-.557-.327-.372-.491-.903-.491-1.593V92.994c0-.672.146-1.177.438-1.508.296-.332.695-.5 1.203-.5.31 0 .593.075.841.22.252.147.451.368.602.66.15.292.225.655.225 1.075Zm-227.229 37.278v-.35a8.771 8.771 0 0 1-1.406 1.328c-.46.34-.965.601-1.504.778a5.645 5.645 0 0 1-1.77.266 5.21 5.21 0 0 1-2.349-.54 5.453 5.453 0 0 1-1.875-1.535c-.526-.664-.925-1.447-1.199-2.345a10.087 10.087 0 0 1-.407-2.915c0-2.211.54-3.936 1.619-5.171 1.079-1.234 2.504-1.853 4.264-1.853 1.022 0 1.88.177 2.579.526.699.35 1.385.889 2.048 1.619v-5.224c0-.725.146-1.274.434-1.645.292-.372.703-.558 1.238-.558s.947.173 1.239.514c.287.34.433.844.433 1.508v15.597c0 .672-.154 1.181-.464 1.517-.314.337-.717.505-1.208.505-.482 0-.884-.178-1.198-.527-.315-.349-.474-.849-.474-1.495Zm-6.954-5.193c0 .96.151 1.774.447 2.45.297.673.704 1.177 1.226 1.518.517.34 1.083.513 1.694.513a3.13 3.13 0 0 0 1.703-.487c.513-.323.924-.818 1.23-1.486.305-.672.46-1.504.46-2.508 0-.938-.155-1.747-.46-2.424-.306-.681-.722-1.199-1.243-1.557a2.963 2.963 0 0 0-1.717-.536c-.645 0-1.225.182-1.734.549-.509.367-.902.893-1.185 1.579-.279.69-.421 1.486-.421 2.389Zm18.048-5.162v10.227c0 .707-.168 1.243-.504 1.605-.336.363-.761.545-1.278.545-.518 0-.938-.186-1.261-.558-.323-.371-.487-.902-.487-1.592V119.97c0-.704.164-1.23.487-1.584.323-.354.743-.531 1.261-.531.517 0 .942.177 1.278.531.336.354.504.85.504 1.478Zm-1.747-3.654c-.491 0-.911-.151-1.26-.451-.35-.301-.523-.73-.523-1.283 0-.496.178-.907.536-1.23a1.806 1.806 0 0 1 1.247-.486c.46 0 .863.146 1.217.438.353.296.53.721.53 1.278 0 .544-.172.969-.517 1.274-.345.305-.752.46-1.23.46Zm9.276 3.601v.429c.624-.823 1.305-1.425 2.044-1.809.739-.385 1.588-.576 2.548-.576.933 0 1.765.204 2.504.611a3.84 3.84 0 0 1 1.645 1.721c.235.433.385.898.456 1.402.066.5.101 1.137.101 1.915v6.587c0 .707-.163 1.243-.486 1.605-.323.363-.748.545-1.265.545-.527 0-.956-.186-1.287-.558-.328-.371-.492-.902-.492-1.592v-5.901c0-1.164-.163-2.057-.486-2.676-.323-.615-.969-.925-1.937-.925-.629 0-1.204.186-1.726.562-.517.376-.898.893-1.137 1.552-.172.527-.26 1.509-.26 2.955v4.433c0 .716-.169 1.252-.5 1.61-.332.358-.761.54-1.283.54-.509 0-.929-.186-1.256-.558-.328-.371-.491-.902-.491-1.592v-10.227c0-.673.146-1.177.438-1.509.296-.332.694-.5 1.203-.5.309 0 .592.076.84.221.252.146.451.368.602.66.15.292.225.654.225 1.075Zm24.873 3.989h-1.349v6.096c0 .805-.177 1.393-.531 1.774-.353.38-.818.571-1.384.571-.615 0-1.093-.2-1.429-.598-.336-.398-.504-.977-.504-1.747v-14.62c0-.827.186-1.428.557-1.8.372-.371.973-.557 1.801-.557h6.259c.862 0 1.601.035 2.216.11a5.613 5.613 0 0 1 1.659.447 4.884 4.884 0 0 1 1.583 1.075 4.732 4.732 0 0 1 1.04 1.628c.239.619.358 1.274.358 1.968 0 1.416-.398 2.548-1.199 3.398-.8.844-2.012 1.446-3.636 1.8.682.363 1.336.898 1.96 1.606a16.528 16.528 0 0 1 1.663 2.26c.487.801.867 1.517 1.141 2.163.27.641.407 1.084.407 1.327 0 .248-.079.496-.239.743a1.634 1.634 0 0 1-.654.584 2.067 2.067 0 0 1-.96.213c-.429 0-.792-.102-1.088-.306a2.994 2.994 0 0 1-.757-.769c-.212-.31-.499-.77-.862-1.372l-1.544-2.565c-.553-.938-1.049-1.655-1.482-2.146-.438-.495-.88-.831-1.331-1.013-.447-.181-1.013-.27-1.695-.27Zm2.203-7.988h-3.552v5.228h3.446c.925 0 1.703-.079 2.336-.239.628-.159 1.11-.433 1.442-.818.332-.385.5-.916.5-1.588 0-.531-.133-.995-.403-1.398a2.406 2.406 0 0 0-1.114-.902c-.447-.19-1.332-.283-2.655-.283Zm21.348 10.112h-6.923c.009.805.173 1.513.487 2.128.314.614.734 1.075 1.256 1.384a3.3 3.3 0 0 0 1.73.469c.424 0 .809-.049 1.159-.15.354-.098.69-.253 1.017-.465.332-.212.633-.438.907-.681.279-.243.637-.571 1.08-.987.181-.154.437-.234.774-.234.362 0 .659.102.884.301.221.195.336.477.336.84 0 .319-.128.69-.376 1.119-.252.425-.628.836-1.136 1.226-.505.393-1.137.721-1.903.977-.765.261-1.645.39-2.636.39-2.274 0-4.039-.651-5.299-1.947-1.261-1.296-1.889-3.052-1.889-5.273 0-1.044.155-2.017.464-2.91a6.469 6.469 0 0 1 1.358-2.3 5.949 5.949 0 0 1 2.203-1.469c.872-.341 1.84-.513 2.902-.513 1.385 0 2.57.292 3.557.876.99.584 1.729 1.336 2.225 2.265.491.924.738 1.866.738 2.826 0 .889-.256 1.469-.765 1.734-.509.261-1.225.394-2.15.394Zm-6.923-2.017h6.415c-.085-1.208-.412-2.11-.978-2.712-.566-.597-1.309-.898-2.234-.898-.885 0-1.606.305-2.172.911-.566.611-.911 1.509-1.031 2.699Zm16.403-4.061v.429c.663-.823 1.358-1.429 2.074-1.814.717-.385 1.526-.579 2.433-.579a5.63 5.63 0 0 1 3.008.841c.916.561 1.641 1.384 2.172 2.463.531 1.08.796 2.358.796 3.835 0 1.089-.154 2.088-.46 2.999-.305.912-.73 1.677-1.265 2.296a5.47 5.47 0 0 1-1.898 1.425c-.729.332-1.512.5-2.353.5-1.008 0-1.858-.204-2.543-.611-.686-.402-1.341-1-1.964-1.787v5.317c0 1.557-.566 2.336-1.699 2.336-.663 0-1.106-.199-1.322-.602-.217-.403-.323-.986-.323-1.756v-15.274c0-.673.146-1.177.442-1.509.292-.332.694-.5 1.203-.5.5 0 .911.173 1.225.513.314.345.474.837.474 1.478Zm6.927 5.144c0-.933-.142-1.733-.429-2.402-.283-.667-.677-1.185-1.181-1.543a2.84 2.84 0 0 0-1.677-.536c-.977 0-1.8.385-2.468 1.15-.668.77-1.004 1.903-1.004 3.393 0 1.407.332 2.504.995 3.283.668.782 1.491 1.172 2.477 1.172.584 0 1.128-.173 1.628-.513.5-.341.903-.85 1.208-1.531.301-.686.451-1.508.451-2.473Zm16.239 5.256v-.456a7.908 7.908 0 0 1-1.336 1.349 4.873 4.873 0 0 1-1.527.81c-.552.177-1.18.265-1.888.265-.858 0-1.624-.177-2.301-.531-.676-.354-1.203-.84-1.574-1.464-.438-.752-.659-1.831-.659-3.242v-7.007c0-.712.159-1.239.477-1.588.319-.35.744-.527 1.27-.527.531 0 .964.177 1.292.531.327.354.491.88.491 1.584v5.662c0 .818.07 1.508.208 2.066.137.557.384.995.743 1.309.358.314.844.473 1.459.473.598 0 1.159-.177 1.686-.531a3.112 3.112 0 0 0 1.154-1.389c.199-.499.297-1.596.297-3.291v-4.299c0-.704.163-1.23.491-1.584.331-.354.761-.531 1.287-.531.526 0 .951.177 1.269.527.323.349.483.876.483 1.588v10.249c0 .672-.155 1.177-.461 1.517-.309.337-.703.505-1.189.505a1.55 1.55 0 0 1-1.199-.527c-.314-.349-.473-.84-.473-1.468Zm10.78-15.624v5.405c.663-.694 1.345-1.225 2.035-1.592.69-.367 1.548-.553 2.565-.553 1.177 0 2.207.279 3.092.836.885.557 1.571 1.367 2.057 2.424.491 1.057.734 2.314.734 3.764 0 1.071-.137 2.053-.407 2.946-.274.894-.667 1.672-1.185 2.327a5.328 5.328 0 0 1-1.889 1.522 5.525 5.525 0 0 1-2.442.54 5.92 5.92 0 0 1-1.535-.195 4.467 4.467 0 0 1-1.225-.513 5.364 5.364 0 0 1-.863-.655 14.176 14.176 0 0 1-.937-1.009v.35c0 .664-.16 1.168-.478 1.508-.323.341-.73.514-1.221.514-.5 0-.898-.173-1.198-.514-.297-.34-.447-.844-.447-1.508v-15.442c0-.717.146-1.261.433-1.628.292-.367.695-.549 1.212-.549.544 0 .965.177 1.256.527.297.349.443.849.443 1.495Zm.168 10.51c0 1.407.323 2.486.964 3.242.646.757 1.486 1.133 2.53 1.133.89 0 1.659-.385 2.3-1.159.642-.774.965-1.88.965-3.322 0-.929-.133-1.734-.403-2.406-.265-.673-.645-1.195-1.136-1.562-.496-.367-1.067-.549-1.726-.549-.672 0-1.269.182-1.796.549-.526.367-.942.898-1.243 1.592-.305.695-.455 1.522-.455 2.482Zm13.469 4.959V114.75c0-.707.16-1.243.474-1.606.314-.362.738-.544 1.274-.544.53 0 .964.182 1.291.54.328.358.491.893.491 1.61v15.341c0 .716-.168 1.252-.499 1.61-.332.358-.761.54-1.283.54-.518 0-.938-.186-1.261-.558-.323-.371-.487-.902-.487-1.592Zm11.386-10.227v10.227c0 .707-.168 1.243-.504 1.605-.336.363-.761.545-1.278.545-.518 0-.938-.186-1.261-.558-.323-.371-.487-.902-.487-1.592V119.97c0-.704.164-1.23.487-1.584.323-.354.743-.531 1.261-.531.517 0 .942.177 1.278.531.336.354.504.85.504 1.478Zm-1.747-3.654c-.491 0-.911-.151-1.26-.451-.35-.301-.523-.73-.523-1.283 0-.496.178-.907.536-1.23a1.806 1.806 0 0 1 1.247-.486c.46 0 .863.146 1.217.438.354.296.53.721.53 1.278 0 .544-.172.969-.517 1.274-.345.305-.752.46-1.23.46Zm18.765 11.656c0 .438-.133.911-.398 1.411-.261.5-.664.977-1.204 1.429-.539.451-1.22.818-2.043 1.092-.818.279-1.743.416-2.774.416-2.185 0-3.892-.637-5.118-1.911-1.229-1.274-1.844-2.981-1.844-5.127 0-1.451.283-2.734.845-3.848a6.03 6.03 0 0 1 2.437-2.583c1.066-.611 2.336-.916 3.813-.916.916 0 1.756.133 2.521.403.761.269 1.411.614 1.942 1.039.531.425.938.876 1.217 1.354.283.482.424.928.424 1.344 0 .425-.159.783-.473 1.079a1.636 1.636 0 0 1-1.15.438c-.292 0-.535-.075-.73-.225-.194-.15-.411-.394-.654-.73-.434-.655-.885-1.15-1.354-1.477-.473-.328-1.071-.492-1.796-.492-1.044 0-1.889.408-2.526 1.226-.641.814-.96 1.929-.96 3.344 0 .664.084 1.274.248 1.831.164.558.398 1.035.712 1.425.31.393.686.69 1.128.893.438.204.925.306 1.451.306.708 0 1.314-.164 1.818-.492.509-.327.956-.831 1.345-1.503.212-.399.447-.708.699-.929a1.32 1.32 0 0 1 .92-.341c.433 0 .792.168 1.075.495.283.328.429.677.429 1.049Zm12.682 2.388c-.858.664-1.685 1.159-2.482 1.491-.8.332-1.698.496-2.689.496-.907 0-1.708-.182-2.393-.54-.686-.358-1.217-.841-1.588-1.455a3.783 3.783 0 0 1-.558-1.995c0-.969.306-1.792.921-2.473.614-.686 1.459-1.141 2.534-1.376.221-.053.779-.168 1.668-.349a64.122 64.122 0 0 0 2.287-.5c.632-.15 1.322-.332 2.065-.549-.044-.933-.229-1.619-.561-2.052-.337-.438-1.022-.655-2.07-.655-.898 0-1.575.124-2.026.376-.456.248-.845.624-1.168 1.128-.323.5-.553.827-.686.991-.137.159-.425.239-.862.239a1.5 1.5 0 0 1-1.031-.385 1.242 1.242 0 0 1-.434-.977c0-.624.222-1.23.659-1.819.443-.588 1.129-1.07 2.062-1.45.933-.381 2.097-.571 3.49-.571 1.553 0 2.778.186 3.667.553.889.367 1.517.947 1.884 1.743.368.796.553 1.849.553 3.162 0 .832-.004 1.535-.009 2.115-.004.579-.008 1.225-.017 1.933 0 .663.11 1.358.331 2.079.222.717.328 1.181.328 1.389 0 .363-.168.694-.509.991-.345.296-.73.447-1.163.447-.363 0-.721-.168-1.075-.509-.354-.341-.73-.832-1.128-1.478Zm-.235-5.126c-.517.19-1.269.393-2.26.601a64.07 64.07 0 0 0-2.052.469 2.865 2.865 0 0 0-1.089.584c-.345.292-.517.694-.517 1.216 0 .536.203.991.61 1.367.403.376.934.567 1.593.567a4.13 4.13 0 0 0 1.933-.461c.593-.309 1.026-.703 1.305-1.189.318-.536.477-1.42.477-2.65v-.504Zm20.357 3.928-3.048-12.103v13.111c0 .726-.163 1.27-.486 1.632-.323.363-.752.545-1.283.545-.518 0-.942-.182-1.269-.54-.328-.358-.491-.903-.491-1.637v-15.031c0-.831.216-1.389.645-1.681.434-.287 1.018-.433 1.748-.433h1.194c.717 0 1.234.066 1.557.195.323.128.566.362.721.698.155.337.332.885.531 1.646l2.76 10.413 2.76-10.413c.199-.761.376-1.309.531-1.646.155-.336.394-.57.717-.698.323-.129.845-.195 1.561-.195h1.19c.735 0 1.318.146 1.752.433.429.292.646.85.646 1.681v15.031c0 .726-.164 1.27-.487 1.632-.323.363-.756.545-1.296.545-.509 0-.929-.182-1.256-.545-.327-.362-.491-.906-.491-1.632v-13.111l-3.048 12.103c-.199.783-.358 1.362-.487 1.729-.123.363-.354.699-.69 1-.34.305-.805.456-1.402.456-.451 0-.832-.098-1.141-.292a2.125 2.125 0 0 1-.726-.744 4.23 4.23 0 0 1-.406-1.004 69.733 69.733 0 0 1-.306-1.145Zm29.359-4.004c0 1.058-.164 2.026-.491 2.915-.332.89-.805 1.655-1.429 2.292a6.238 6.238 0 0 1-2.229 1.468c-.863.341-1.836.514-2.915.514-1.075 0-2.039-.173-2.893-.518a6.42 6.42 0 0 1-2.225-1.486 6.416 6.416 0 0 1-1.425-2.278c-.323-.881-.486-1.849-.486-2.911 0-1.071.163-2.053.491-2.941.332-.89.8-1.651 1.415-2.283a6.278 6.278 0 0 1 2.23-1.456c.871-.34 1.835-.513 2.893-.513 1.07 0 2.043.173 2.915.518.871.345 1.619.84 2.242 1.482a6.309 6.309 0 0 1 1.42 2.282c.323.881.487 1.854.487 2.915Zm-3.557 0c0-1.442-.318-2.561-.951-3.366-.637-.8-1.486-1.203-2.556-1.203-.695 0-1.301.177-1.827.535-.527.359-.934.889-1.217 1.588-.287.699-.429 1.517-.429 2.446 0 .925.142 1.735.42 2.424.284.69.682 1.221 1.204 1.588.522.368 1.141.549 1.849.549 1.07 0 1.919-.403 2.556-1.212.633-.805.951-1.924.951-3.349Zm7.007 5.039V114.75c0-.707.16-1.243.474-1.606.314-.362.738-.544 1.274-.544.53 0 .964.182 1.291.54.328.358.491.893.491 1.61v15.341c0 .716-.168 1.252-.5 1.61-.331.358-.76.54-1.282.54-.518 0-.938-.186-1.261-.558-.323-.371-.487-.902-.487-1.592Zm17.544.128v-.35a8.733 8.733 0 0 1-1.407 1.328c-.46.34-.964.601-1.504.778a5.639 5.639 0 0 1-1.769.266 5.21 5.21 0 0 1-2.349-.54 5.453 5.453 0 0 1-1.875-1.535c-.527-.664-.925-1.447-1.199-2.345a10.087 10.087 0 0 1-.407-2.915c0-2.211.54-3.936 1.619-5.171 1.079-1.234 2.504-1.853 4.264-1.853 1.022 0 1.88.177 2.579.526.699.35 1.385.889 2.048 1.619v-5.224c0-.725.146-1.274.434-1.645.292-.372.703-.558 1.238-.558s.947.173 1.239.514c.287.34.433.844.433 1.508v15.597c0 .672-.155 1.181-.464 1.517-.314.337-.717.505-1.208.505a1.55 1.55 0 0 1-1.199-.527c-.314-.349-.473-.849-.473-1.495Zm-6.954-5.193c0 .96.151 1.774.447 2.45.296.673.704 1.177 1.225 1.518.518.34 1.084.513 1.695.513.623 0 1.19-.164 1.703-.487.513-.323.924-.818 1.229-1.486.306-.672.46-1.504.46-2.508 0-.938-.154-1.747-.46-2.424-.305-.681-.721-1.199-1.243-1.557a2.958 2.958 0 0 0-1.716-.536c-.646 0-1.225.182-1.734.549-.509.367-.902.893-1.185 1.579-.279.69-.421 1.486-.421 2.389Zm27.762.026c0 1.058-.164 2.026-.491 2.915-.332.89-.805 1.655-1.429 2.292a6.238 6.238 0 0 1-2.229 1.468c-.863.341-1.836.514-2.915.514-1.075 0-2.039-.173-2.893-.518a6.42 6.42 0 0 1-2.225-1.486 6.4 6.4 0 0 1-1.424-2.278c-.323-.881-.487-1.849-.487-2.911 0-1.071.164-2.053.491-2.941.332-.89.801-1.651 1.416-2.283a6.274 6.274 0 0 1 2.229-1.456c.871-.34 1.836-.513 2.893-.513 1.07 0 2.043.173 2.915.518.871.345 1.619.84 2.243 1.482a6.306 6.306 0 0 1 1.419 2.282c.323.881.487 1.854.487 2.915Zm-3.556 0c0-1.442-.319-2.561-.951-3.366-.637-.8-1.487-1.203-2.557-1.203-.695 0-1.301.177-1.827.535-.526.359-.933.889-1.217 1.588-.287.699-.429 1.517-.429 2.446 0 .925.142 1.735.421 2.424.283.69.681 1.221 1.203 1.588.522.368 1.141.549 1.849.549 1.07 0 1.92-.403 2.557-1.212.632-.805.951-1.924.951-3.349Zm9.156-4.994 2.862 8.042 3.083-8.391c.244-.672.478-1.15.713-1.433.234-.279.588-.421 1.061-.421.452 0 .832.151 1.146.456.314.301.473.65.473 1.048 0 .155-.026.337-.084.544a4.934 4.934 0 0 1-.194.584l-.252.62-3.393 8.426c-.097.239-.217.549-.372.92-.15.372-.318.686-.504.951a1.973 1.973 0 0 1-.686.615c-.274.146-.601.222-.991.222-.5 0-.898-.115-1.198-.346a2.247 2.247 0 0 1-.659-.751c-.142-.27-.385-.81-.721-1.611l-3.367-8.334a257.9 257.9 0 0 0-.239-.623 5.2 5.2 0 0 1-.207-.633 2.19 2.19 0 0 1-.085-.557c0-.243.076-.482.221-.721a1.71 1.71 0 0 1 .607-.584c.261-.15.539-.226.845-.226.583 0 .99.168 1.211.505.217.34.461.906.73 1.698Zm21.14 10.196c-.858.664-1.685 1.159-2.481 1.491-.801.332-1.699.496-2.69.496-.907 0-1.708-.182-2.393-.54-.686-.358-1.217-.841-1.588-1.455a3.783 3.783 0 0 1-.558-1.995c0-.969.306-1.792.921-2.473.614-.686 1.459-1.141 2.534-1.376.221-.053.779-.168 1.668-.349a64.122 64.122 0 0 0 2.287-.5 42.25 42.25 0 0 0 2.066-.549c-.045-.933-.23-1.619-.562-2.052-.337-.438-1.022-.655-2.07-.655-.898 0-1.575.124-2.026.376-.456.248-.845.624-1.168 1.128-.323.5-.553.827-.686.991-.137.159-.424.239-.862.239-.398 0-.743-.129-1.031-.385a1.242 1.242 0 0 1-.434-.977c0-.624.222-1.23.66-1.819.442-.588 1.128-1.07 2.061-1.45.933-.381 2.097-.571 3.49-.571 1.553 0 2.778.186 3.667.553.889.367 1.517.947 1.884 1.743.368.796.554 1.849.554 3.162 0 .832-.005 1.535-.009 2.115-.005.579-.009 1.225-.018 1.933 0 .663.11 1.358.332 2.079.221.717.327 1.181.327 1.389 0 .363-.168.694-.509.991a1.736 1.736 0 0 1-1.163.447c-.363 0-.721-.168-1.075-.509-.354-.341-.73-.832-1.128-1.478Zm-.234-5.126c-.518.19-1.27.393-2.261.601a64.07 64.07 0 0 0-2.052.469 2.865 2.865 0 0 0-1.089.584c-.345.292-.517.694-.517 1.216 0 .536.203.991.61 1.367.403.376.934.567 1.593.567a4.13 4.13 0 0 0 1.933-.461c.593-.309 1.026-.703 1.305-1.189.318-.536.478-1.42.478-2.65v-.504Z" fill="#FFEE2A"/></svg>