<svg xmlns="http://www.w3.org/2000/svg" fill="none" viewBox="0 0 23 33"><path stroke="#fff" stroke-linecap="round" stroke-linejoin="round" stroke-width="1.3" d="M1 16.577c.942 0 .942.119 1.883.119.942 0 .942-.177 1.884-.177.941 0 .941.109 1.883.109.941 0 .941-.073 1.883-.073m5.934.055c.942 0 .942-.02 1.883-.02.942 0 .942.113 1.884.113.941 0 .941-.128 1.883-.128.941 0 .941.048 1.883.048M11.799 13.33c0-.872-.091-.872-.091-1.743 0-.871.078-.871.078-1.74 0-.868-.02-.87-.02-1.742 0-.871.128-.871.128-1.742s-.176-.871-.176-1.742m.206 27.277c0-.93-.168-.93-.168-1.858 0-.93-.028-.93-.028-1.859 0-.929.025-.929.025-1.858s.139-.929.139-1.858.02-.929.02-1.858-.036-.929-.036-1.86c0-.932-.173-.93-.173-1.861M11.7 3.208c0-1.103-.007-1.103-.007-2.208"/></svg>