<svg xmlns="http://www.w3.org/2000/svg" fill="none" viewBox="0 0 156 81"><path fill="#101C66" fill-rule="evenodd" d="M103.397 29.177h1.399v-1.384h-1.399v1.384Zm-89.27-9.837H3.977L0 0h18.104l-3.976 19.34Z" clip-rule="evenodd"/><path fill="#253B90" fill-rule="evenodd" d="M14.128 20.4H3.976L0 39.74h18.104L14.128 20.4Z" clip-rule="evenodd"/><path fill="#101C66" fill-rule="evenodd" d="M14.128 60.14H3.976L0 40.8h18.104l-3.976 19.34Z" clip-rule="evenodd"/><path fill="#253B90" fill-rule="evenodd" d="M14.128 61.2H3.976L0 80.54h18.104L14.128 61.2Z" clip-rule="evenodd"/><path fill="#101C62" fill-rule="evenodd" d="M34.955 26.965V16.737h9.59v1.38h-8.087v3.052h4.71v1.272h-4.71v4.524h-1.503ZM48 16.737v8.848h7.809v-8.848h1.503v7.974c0 .827-.17 1.41-.512 1.748-.34.336-.93.506-1.766.506h-6.26c-.836 0-1.44-.17-1.78-.506-.327-.338-.497-.92-.497-1.749v-7.972H48Zm12.302 10.228V16.737h1.146l8.74 8.004v-8.004h1.502v10.228h-1.147l-8.738-8.004v8.004h-1.503Zm15.99-1.38h5.547c.79 0 1.38-.123 1.75-.353.605-.383.9-1.134.9-2.27V20.74c0-.629-.093-1.15-.28-1.549-.185-.399-.464-.675-.82-.828-.357-.168-.868-.245-1.55-.245h-5.547v7.467Zm-1.503 1.38V16.738h6.849c1.317 0 2.293.2 2.928.598 1.007.644 1.503 1.901 1.503 3.787v1.457c0 1.104-.155 1.962-.465 2.607a2.865 2.865 0 0 1-1.038 1.18c-.635.4-1.611.598-2.928.598H74.79Zm16.1-3.88h5.654l-2.866-5.336-2.789 5.336Zm-3.673 3.88 5.454-10.227h2.123l5.562 10.227H98.62l-1.394-2.607h-7.004l-1.38 2.607h-1.626Zm17.664-8.848v8.848h-1.503v-8.848h-4.71v-1.379h10.939v1.38h-4.726Zm6.678 8.848h1.503V16.738h-1.503v10.227Zm6.523-3.88h5.655l-2.866-5.336-2.789 5.336Zm-3.672 3.88 5.453-10.227h2.123l5.562 10.227h-1.735l-1.394-2.607h-7.004l-1.379 2.607h-1.626ZM46.033 38.527l-1.503.306v-2.315h-8.289v7.467h8.29V41.44l1.502.307v1.365c0 .827-.17 1.41-.511 1.747-.341.338-.93.507-1.767.507h-6.74c-.836 0-1.425-.17-1.766-.507-.325-.337-.495-.92-.495-1.747v-5.72c0-.828.17-1.411.51-1.748.341-.337.915-.506 1.751-.506h6.74c.837 0 1.426.169 1.767.506.34.337.51.92.51 1.748v1.135Zm4.168 5.458h8.29v-7.467H50.2v7.467Zm9.792-.874c0 .828-.17 1.41-.511 1.748-.341.338-.93.506-1.767.506h-6.74c-.836 0-1.425-.168-1.766-.506-.325-.337-.495-.92-.495-1.748v-5.719c0-.828.17-1.41.51-1.748.341-.338.915-.506 1.752-.506h6.74c.836 0 1.425.168 1.766.506.34.337.511.92.511 1.748v5.72Zm2.882 2.255V35.138h1.147l8.738 8.004v-8.004h1.503v10.228h-1.146l-8.739-8.005v8.005h-1.503Zm24.59-7.943-1.503.322v-1.227h-7.36v2.944h6.817c.837 0 1.426.169 1.767.506.34.322.511.905.511 1.733v1.41c0 .828-.17 1.41-.51 1.748-.342.338-.93.507-1.767.507h-6.306c-.837 0-1.426-.17-1.767-.507-.325-.337-.496-.92-.496-1.747v-.338l1.488-.322v1.533h7.855v-3.25h-6.817c-.837 0-1.426-.169-1.766-.506-.341-.338-.512-.92-.512-1.748v-1.089c0-.828.17-1.411.512-1.748.34-.337.93-.506 1.766-.506h5.81c.837 0 1.425.169 1.766.506.341.337.511.92.511 1.748v.03Zm8.103-.905v8.847h-1.503v-8.847h-4.71v-1.38h10.939v1.38h-4.726Zm6.693 4.968h5.656l-2.867-5.336-2.789 5.336Zm-3.672 3.88 5.454-10.228h2.123l5.562 10.228h-1.735l-1.394-2.607h-7.004l-1.379 2.607h-1.627Zm14.488 0V35.138h1.146l8.739 8.004v-8.004h1.502v10.228h-1.146l-8.738-8.005v8.005h-1.503Zm19.569-8.848v8.847h-1.503v-8.847h-4.71v-1.38h10.939v1.38h-4.726Zm6.678 8.848h1.503V35.138h-1.503v10.228Zm4.602 0V35.138h1.146l8.739 8.004v-8.004h1.503v10.228h-1.147l-8.738-8.005v8.005h-1.503ZM45.94 53.538h1.766v10.227h-1.503v-8.31l-4.633 6.578h-.418l-4.694-6.486v8.218h-1.503V53.538h1.89l4.602 6.364 4.493-6.364Zm4.866 10.227h1.503V53.538h-1.503v10.227Zm15.586-10.227h1.767v10.227h-1.503v-8.31l-4.633 6.578h-.418l-4.695-6.486v8.218h-1.502V53.538h1.89l4.601 6.364 4.493-6.364Zm4.866 10.227h1.503V53.538h-1.503v10.227Z" clip-rule="evenodd"/></svg>