<svg xmlns="http://www.w3.org/2000/svg" fill="none" viewBox="0 0 156 81"><path fill="#fff" fill-rule="evenodd" d="M103.691 29.378h1.399v-1.384h-1.399v1.384ZM14.422 19.54H4.27L.294.2h18.104l-3.976 19.34Z" clip-rule="evenodd"/><path fill="#F2F2F2" fill-rule="evenodd" d="M14.422 20.6H4.27L.294 39.94h18.104L14.422 20.6Z" clip-rule="evenodd"/><path fill="#fff" fill-rule="evenodd" d="M14.422 60.34H4.27L.294 41h18.104l-3.976 19.34Z" clip-rule="evenodd"/><path fill="#F2F2F2" fill-rule="evenodd" d="M14.422 61.4H4.27L.294 80.74h18.104L14.422 61.4Z" clip-rule="evenodd"/><path fill="#fff" fill-rule="evenodd" d="M35.25 27.165V16.938h9.59v1.38h-8.088v3.051h4.71v1.273h-4.71v4.523h-1.503Zm13.045-10.227v8.847h7.809v-8.847h1.503v7.973c0 .828-.17 1.41-.511 1.748-.341.337-.93.506-1.767.506h-6.26c-.836 0-1.44-.169-1.78-.506-.327-.338-.497-.92-.497-1.748v-7.973h1.503Zm12.302 10.227V16.938h1.147l8.738 8.004v-8.004h1.503v10.227h-1.146L62.1 19.161v8.004h-1.503Zm15.99-1.38h5.547c.79 0 1.38-.122 1.751-.352.604-.384.899-1.135.899-2.27V20.94c0-.628-.093-1.15-.279-1.548-.186-.4-.465-.675-.821-.829-.356-.168-.868-.245-1.55-.245h-5.546v7.468Zm-1.502 1.38V16.939h6.848c1.317 0 2.293.2 2.928.598 1.007.643 1.503 1.9 1.503 3.787v1.457c0 1.104-.155 1.962-.465 2.606-.248.506-.588.89-1.038 1.18-.635.4-1.611.599-2.928.599h-6.848v-.001Zm16.098-3.88h5.656l-2.867-5.335-2.789 5.336Zm-3.672 3.88 5.454-10.227h2.123l5.562 10.227h-1.735L97.52 24.56h-7.004l-1.379 2.606H87.51Zm17.664-8.847v8.847h-1.503v-8.847h-4.71v-1.38H109.9v1.38h-4.726Zm6.678 8.847h1.503V16.938h-1.503v10.227Zm6.523-3.88h5.655l-2.866-5.335-2.789 5.336Zm-3.672 3.88 5.454-10.227h2.123l5.562 10.227h-1.735l-1.395-2.606h-7.003l-1.379 2.606h-1.627ZM46.327 38.727l-1.503.307v-2.315h-8.289v7.467h8.29V41.64l1.502.306v1.365c0 .828-.17 1.41-.511 1.748-.341.337-.93.506-1.767.506h-6.74c-.836 0-1.424-.169-1.765-.506-.326-.338-.496-.92-.496-1.748v-5.72c0-.828.17-1.41.511-1.748.34-.337.914-.505 1.75-.505h6.74c.837 0 1.426.168 1.767.506.341.337.511.92.511 1.748v1.134Zm4.168 5.459h8.29v-7.467h-8.29v7.467Zm9.792-.874c0 .828-.17 1.41-.511 1.748-.34.337-.93.506-1.766.506h-6.74c-.837 0-1.426-.169-1.767-.506-.325-.338-.495-.92-.495-1.748v-5.72c0-.828.17-1.41.51-1.748.342-.337.915-.505 1.752-.505h6.74c.836 0 1.425.168 1.766.505.341.338.511.92.511 1.749v5.719Zm2.883 2.254V35.339h1.146l8.739 8.004v-8.004h1.502v10.227h-1.146l-8.739-8.005v8.005H63.17Zm24.589-7.943-1.503.322v-1.227h-7.36v2.945h6.818c.836 0 1.425.168 1.766.506.34.321.511.904.511 1.732v1.411c0 .828-.17 1.41-.51 1.748-.342.337-.93.506-1.767.506h-6.306c-.837 0-1.426-.169-1.767-.506-.325-.338-.496-.92-.496-1.748v-.337l1.488-.323v1.534h7.855v-3.25h-6.817c-.837 0-1.425-.17-1.766-.507-.341-.337-.512-.92-.512-1.748v-1.088c0-.829.171-1.412.512-1.749.34-.337.93-.505 1.766-.505h5.81c.837 0 1.426.168 1.766.505.341.338.512.92.512 1.748v.031Zm8.103-.904v8.847H94.36v-8.847h-4.71v-1.38h10.939v1.38h-4.726Zm6.694 4.968h5.655l-2.866-5.337-2.789 5.337Zm-3.673 3.879 5.454-10.227h2.123l5.563 10.227h-1.735l-1.395-2.607h-7.004l-1.379 2.607h-1.627Zm14.488 0V35.339h1.146l8.739 8.004v-8.004h1.503v10.227h-1.147l-8.738-8.005v8.005h-1.503Zm19.569-8.847v8.847h-1.502v-8.847h-4.711v-1.38h10.939v1.38h-4.726Zm6.678 8.847h1.503V35.339h-1.503v10.227Zm4.602 0V35.339h1.146l8.739 8.004v-8.004h1.503v10.227h-1.147l-8.738-8.005v8.005h-1.503Zm-97.986 8.173H48v10.227h-1.503v-8.311l-4.632 6.578h-.418l-4.695-6.486v8.219h-1.503V53.739h1.89l4.602 6.363 4.493-6.363ZM51.1 63.966h1.503V53.739H51.1v10.227Zm15.587-10.227h1.766v10.227H66.95v-8.311l-4.633 6.578H61.9l-4.694-6.486v8.219h-1.503V53.739h1.89l4.601 6.363 4.494-6.363Zm4.865 10.227h1.503V53.739h-1.503v10.227Z" clip-rule="evenodd"/></svg>